{"title":"Game of Thrones Season 01 BluRay Remux 1080p AVC DTS-HDMA 5.1 + ","uid":12158907,"size":125025493874,"categoryP":"video","categoryS":"tv_shows","magnet":"?xt=urn:btih:a823bcb6e25fbf3cb13cdbf8a618c92f48e66d00&amp;dn=Game+of+Thrones+Season+01+BluRay+Remux+1080p+AVC+DTS-HDMA+5.1+%2B+&amp;tr=udp%3A%2F%2Ftracker.openbittorrent.com%3A80&amp;tr=udp%3A%2F%2Fopen.demonii.com%3A1337&amp;tr=udp%3A%2F%2Ftracker.coppersurfer.tk%3A6969&amp;tr=udp%3A%2F%2Fexodus.desync.com%3A6969","seeders":0,"leechers":1,"uploader":"UMe2","files":17,"time":1437839686,"description":"Game of Thrones is an American fantasy drama television series created for HBO by showrunners David Benioff and D. B. Weiss. It is an adaptation of A Song of Ice and Fire, George R. R. Martin's series of fantasy novels, the first of which is titled A Game of Thrones.\n\nSource: BluRay Remux\nVideo: AVC 1920x1080 @ 23,976 fps @ 35 Mbps\nAudio: EN: DTS-HD MA 5.1 @ 24 Bit, 48kHz\n\n- Commentary included\n- Extras were re-encoded with x264 @ 4500 kbits\n\nVideo\nID : 1\nFormat : AVC\nFormat/Info : Advanced Video Codec\nFormat profile : &lt;a class=&quot;__cf_email__&quot; href=&quot;/cdn-cgi/l/email-protection&quot; data-cfemail=&quot;0d45646a654d4139233c&quot;&gt;[email&amp;#160;protected]&lt;/a&gt;&lt;script data-cfhash='f9e31' type=&quot;text/javascript&quot;&gt;\n/* &lt;![CDATA[ */!function(){try{var t=&quot;currentScript&quot;in document?document.currentScript:function(){for(var t=document.getElementsByTagName(&quot;script&quot;),e=t.length;e--;)if(t[e].getAttribute(&quot;data-cfhash&quot;))return t[e]}();if(t&amp;&amp;t.previousSibling){var e,r,n,i,c=t.previousSibling,a=c.getAttribute(&quot;data-cfemail&quot;);if(a){for(e=&quot;&quot;,r=parseInt(a.substr(0,2),16),n=2;a.length-n;n+=2)i=parseInt(a.substr(n,2),16)^r,e+=String.fromCharCode(i);e=document.createTextNode(e),c.parentNode.replaceChild(e,c)}t.parentNode.removeChild(t);}}catch(u){}}()/* ]]&gt; */&lt;/script&gt;\nFormat settings, CABAC : Yes\nFormat settings, ReFrames : 4 frames\nCodec ID : V_MPEG4/ISO/AVC\nDuration : 1h 1mn\nBit rate mode : Variable\nMaximum bit rate : 35.0 Mbps\nWidth : 1 920 pixels\nHeight : 1 080 pixels\nDisplay aspect ratio : 16:9\nFrame rate mode : Constant\nFrame rate : 23.976 fps\nColor space : YUV\nChroma subsampling : 4:2:0\nBit depth : 8 bits\nScan type : Progressive\nLanguage : English\nDefault : No\nForced : No\n\nAudio #1\nID : 2\nFormat : DTS\nFormat/Info : Digital Theater Systems\nFormat profile : MA / Core\nMode : 16\nFormat settings, Endianness : Big\nCodec ID : A_DTS\nDuration : 1h 1mn\nBit rate mode : Variable\nBit rate : Unknown / 1 509 Kbps\nChannel(s) : 6 channels\nChannel positions : Front: L C R, Side: L R, LFE\nSampling rate : 48.0 KHz\nBit depth : 24 bits\nCompression mode : Lossless / Lossy\nTitle : Surround 5.1\nLanguage : English\nDefault : Yes\nForced : No\n\nAudio #2\nID : 3\nFormat : DTS\nFormat/Info : Digital Theater Systems\nMode : 16\nFormat settings, Endianness : Big\nCodec ID : A_DTS\nDuration : 1h 1mn\nBit rate mode : Constant\nBit rate : 1 509 Kbps\nChannel(s) : 6 channels\nChannel positions : Front: L C R, Side: L R, LFE\nSampling rate : 48.0 KHz\nBit depth : 24 bits\nCompression mode : Lossy\nStream size : 665 MiB (5%)\nTitle : Surround 5.1\nLanguage : English\nDefault : No\nForced : No\n\nAudio #3\nID : 4\nFormat : DTS\nFormat/Info : Digital Theater Systems\nMode : 16\nFormat settings, Endianness : Big\nCodec ID : A_DTS\nDuration : 1h 1mn\nBit rate mode : Constant\nBit rate : 768 Kbps\nChannel(s) : 6 channels\nChannel positions : Front: L C R, Side: L R, LFE\nSampling rate : 48.0 KHz\nBit depth : 24 bits\nCompression mode : Lossy\nStream size : 338 MiB (2%)\nTitle : Surround 5.1\nLanguage : English\nDefault : No\nForced : No","torrent":{"xt":"urn:btih:a823bcb6e25fbf3cb13cdbf8a618c92f48e66d00","amp;dn":"Game+of+Thrones+Season+01+BluRay+Remux+1080p+AVC+DTS-HDMA+5.1+%2B+","amp;tr":["udp%3A%2F%2Ftracker.openbittorrent.com%3A80","udp%3A%2F%2Fopen.demonii.com%3A1337","udp%3A%2F%2Ftracker.coppersurfer.tk%3A6969","udp%3A%2F%2Fexodus.desync.com%3A6969"],"infoHash":"a823bcb6e25fbf3cb13cdbf8a618c92f48e66d00","infoHashBuffer":{"type":"Buffer","data":[168,35,188,182,226,95,191,60,177,60,219,248,166,24,201,47,72,230,109,0]},"announce":[],"urlList":[]}}